<svg width="16" height="16" viewBox="0 0 16 16" fill="none" xmlns="http://www.w3.org/2000/svg">
  <path
    d="M14.5335 8.47375C14.5335 11.271 11.6084 13.5386 8.00013 13.5386C4.39186 13.5386 1.4668 11.271 1.4668 8.47375C1.4668 6.7395 2.5868 5.20755 4.30786 4.29904C6.02893 3.39054 7.1004 2.45996 8.00013 2.45996C8.89986 2.45996 9.66893 3.2195 11.6924 4.29904C13.4135 5.20755 14.5335 6.7395 14.5335 8.47375Z"
    fill="#FBF0DF"/>
  <path
    d="M14.5329 8.47314C14.532 8.1138 14.4818 7.75623 14.3836 7.41016C13.874 13.5343 6.29161 13.8285 3.31055 11.9968C4.65063 13.0202 6.30432 13.5637 7.99961 13.538C11.6023 13.538 14.5329 11.2667 14.5329 8.47314Z"
    fill="#F6DECE"/>
  <path
    d="M5.48573 3.96249C6.32013 3.46962 7.42893 2.54456 8.51906 2.54272C8.35136 2.48931 8.17637 2.46141 8.00013 2.45996C7.5484 2.45996 7.0668 2.68985 6.46013 3.03559C6.2492 3.15697 6.0308 3.29123 5.79933 3.431C5.3644 3.69582 4.866 3.99559 4.306 4.29536C2.52893 5.24249 1.4668 6.80387 1.4668 8.47375C1.4668 8.54732 1.4668 8.62088 1.4668 8.6926C2.598 4.75513 4.6532 4.45536 5.48573 3.96249Z"
    fill="#FFFEFC"/>
  <path fill-rule="evenodd" clip-rule="evenodd"
        d="M7.4621 2.9246C7.46471 3.35885 7.37217 3.78854 7.1908 4.18433C7.00943 4.58011 6.74349 4.93268 6.41116 5.21794C6.3589 5.26391 6.39996 5.35219 6.46716 5.32644C7.09623 5.08552 7.94556 4.3646 7.58716 2.90989C7.57223 2.82713 7.4621 2.8492 7.4621 2.9246ZM7.88583 2.9246C8.11423 3.29176 8.25934 3.70324 8.31122 4.13083C8.36309 4.55841 8.3205 4.992 8.18636 5.40185C8.16396 5.46621 8.24423 5.52139 8.28903 5.46805C8.69783 4.95311 9.05436 3.93058 7.98663 2.82713C7.9325 2.77932 7.8485 2.85288 7.88583 2.91725V2.9246ZM8.40103 2.89334C8.75871 3.14282 9.05793 3.46497 9.2785 3.83806C9.49908 4.21114 9.63589 4.6265 9.6797 5.0561C9.67781 5.07158 9.68204 5.08718 9.69151 5.09967C9.70098 5.11216 9.71497 5.12058 9.73058 5.12319C9.74618 5.12579 9.7622 5.12237 9.77532 5.11365C9.78844 5.10492 9.79764 5.09156 9.80103 5.07633C9.97276 4.43449 9.8757 3.34024 8.46263 2.77196C8.38796 2.74254 8.33943 2.84185 8.40103 2.88598V2.89334ZM4.95516 4.80598C5.38063 4.68075 5.77455 4.46865 6.11128 4.18347C6.44802 3.89829 6.72002 3.54643 6.90956 3.15081C6.94316 3.0846 7.04956 3.11035 7.03276 3.18391C6.70983 4.65518 5.62903 4.96231 4.95703 4.92185C4.8861 4.92368 4.88796 4.82621 4.95516 4.80598Z"
        fill="#CCBEA7"/>
  <path
    d="M8 14C4.13973 14 1 11.5209 1 8.47356C1 6.63448 2.1536 4.91862 4.0856 3.89057C4.6456 3.59632 5.12533 3.30023 5.5528 3.04092C5.788 2.89747 6.01013 2.76322 6.2248 2.63816C6.88 2.25563 7.44 2 8 2C8.56 2 9.04907 2.22069 9.66133 2.57747C9.848 2.6823 10.0347 2.79632 10.2344 2.92138C10.6992 3.2046 11.2237 3.5246 11.9144 3.89057C13.8464 4.91862 15 6.63264 15 8.47356C15 11.5209 11.8603 14 8 14ZM8 2.45977C7.54827 2.45977 7.06667 2.68966 6.46 3.0354C6.24907 3.15678 6.03067 3.29103 5.7992 3.4308C5.36427 3.69563 4.86587 3.9954 4.30587 4.29517C2.5288 5.2423 1.46667 6.80368 1.46667 8.47356C1.46667 11.2671 4.39733 13.5402 8 13.5402C11.6027 13.5402 14.5333 11.2671 14.5333 8.47356C14.5333 6.80368 13.4712 5.2423 11.6923 4.29885C10.9867 3.93103 10.436 3.58529 9.98987 3.3131C9.7864 3.18989 9.59973 3.07586 9.42987 2.97471C8.86427 2.64368 8.45173 2.45977 8 2.45977Z"
    fill="black"/>
  <path
    d="M9.31629 9.81594C9.23243 10.1543 9.04155 10.4577 8.77122 10.6821C8.56827 10.876 8.30554 10.9976 8.02456 11.0279C7.73513 11.0024 7.46318 10.8805 7.25362 10.6821C6.98606 10.4566 6.79786 10.1534 6.71602 9.81594C6.71331 9.7959 6.71529 9.77553 6.72181 9.75636C6.72832 9.7372 6.73921 9.71976 6.75362 9.70538C6.76803 9.691 6.7856 9.68007 6.80497 9.67341C6.82433 9.66675 6.84499 9.66455 6.86536 9.66697H9.16882C9.18904 9.66485 9.20949 9.66728 9.22862 9.67407C9.24775 9.68087 9.26506 9.69185 9.27926 9.70619C9.29345 9.72053 9.30416 9.73786 9.31058 9.75687C9.31699 9.77588 9.31895 9.79607 9.31629 9.81594Z"
    fill="#B71422"/>
  <path
    d="M7.25397 10.6968C7.4631 10.8952 7.73407 11.0184 8.02304 11.0462C8.31135 11.018 8.5816 10.8949 8.79024 10.6968C8.85698 10.6355 8.91935 10.5698 8.97691 10.5C8.86191 10.3715 8.72145 10.2675 8.56415 10.1944C8.40685 10.1214 8.23605 10.0808 8.06224 10.0752C7.87626 10.0795 7.69415 10.1283 7.53156 10.2174C7.36897 10.3065 7.23079 10.4331 7.12891 10.5865C7.17184 10.6251 7.20917 10.6619 7.25397 10.6968Z"
    fill="#FF6164"/>
  <path
    d="M7.28453 10.5517C7.37708 10.4338 7.49554 10.3382 7.63101 10.2719C7.76648 10.2057 7.91543 10.1705 8.06666 10.1691C8.34621 10.1773 8.61256 10.2881 8.81333 10.48C8.85626 10.434 8.89733 10.3862 8.93653 10.3383C8.69906 10.1155 8.38522 9.98882 8.05733 9.9834C7.8821 9.98489 7.70938 10.0246 7.55156 10.0996C7.39374 10.1747 7.25474 10.2832 7.14453 10.4174C7.18867 10.4647 7.2354 10.5095 7.28453 10.5517Z"
    fill="black"/>
  <path
    d="M8.01682 11.1379C7.70577 11.111 7.41305 10.9814 7.18616 10.77C6.89721 10.5293 6.69382 10.2039 6.60562 9.8413C6.5993 9.80902 6.60037 9.77576 6.60877 9.74394C6.61717 9.71212 6.63267 9.68255 6.65416 9.6574C6.67974 9.62696 6.71204 9.60269 6.7486 9.58643C6.78516 9.57018 6.825 9.56237 6.86509 9.5636H9.16856C9.20859 9.56277 9.2483 9.57076 9.28479 9.58699C9.32129 9.60322 9.35364 9.62727 9.37949 9.6574C9.40076 9.68264 9.416 9.71228 9.42408 9.74411C9.43216 9.77595 9.43287 9.80916 9.42616 9.8413C9.33796 10.2039 9.13457 10.5293 8.84562 10.77C8.61922 10.981 8.32722 11.1106 8.01682 11.1379ZM6.86509 9.77694C6.83522 9.77694 6.82776 9.78981 6.82589 9.79349C6.9048 10.1079 7.08329 10.3894 7.33549 10.5972C7.51991 10.7762 7.75968 10.8894 8.01682 10.919C8.2733 10.8898 8.51281 10.7779 8.69816 10.6008C8.94957 10.3927 9.12737 10.1113 9.20589 9.79717C9.20182 9.79129 9.19618 9.78663 9.18959 9.78371C9.183 9.78079 9.17572 9.77972 9.16856 9.78061L6.86509 9.77694Z"
    fill="black"/>
  <path
    d="M10.84 9.92935C11.4431 9.92935 11.932 9.64611 11.932 9.29671C11.932 8.94731 11.4431 8.66406 10.84 8.66406C10.237 8.66406 9.74805 8.94731 9.74805 9.29671C9.74805 9.64611 10.237 9.92935 10.84 9.92935Z"
    fill="#FEBBD0"/>
  <path
    d="M5.18966 9.92935C5.79275 9.92935 6.28166 9.64611 6.28166 9.29671C6.28166 8.94731 5.79275 8.66406 5.18966 8.66406C4.58656 8.66406 4.09766 8.94731 4.09766 9.29671C4.09766 9.64611 4.58656 9.92935 5.18966 9.92935Z"
    fill="#FEBBD0"/>
  <path fill-rule="evenodd" clip-rule="evenodd"
        d="M5.70245 9.04327C5.90595 9.04363 6.10499 8.98451 6.27438 8.87338C6.44376 8.76226 6.57589 8.60413 6.65402 8.419C6.73215 8.23387 6.75279 8.03006 6.71331 7.83337C6.67384 7.63668 6.57603 7.45595 6.43226 7.31405C6.28849 7.17215 6.10523 7.07546 5.90566 7.03621C5.70609 6.99696 5.49919 7.01692 5.31114 7.09356C5.1231 7.1702 4.96235 7.30008 4.84925 7.46677C4.73615 7.63345 4.67578 7.82944 4.67578 8.02993C4.67578 8.29837 4.78389 8.55584 4.97637 8.74582C5.16886 8.9358 5.42999 9.04278 5.70245 9.04327ZM10.3262 9.04327C10.5299 9.04472 10.7295 8.98653 10.8996 8.87608C11.0697 8.76562 11.2027 8.60787 11.2817 8.42284C11.3607 8.23781 11.3822 8.03384 11.3433 7.83679C11.3045 7.63974 11.2071 7.45849 11.0636 7.31604C10.92 7.17359 10.7368 7.07634 10.5371 7.03664C10.3373 6.99694 10.1302 7.01658 9.94179 7.09305C9.75341 7.16953 9.59234 7.2994 9.47899 7.4662C9.36564 7.633 9.30512 7.8292 9.30511 8.02993C9.30462 8.29756 9.4118 8.55448 9.60318 8.74441C9.79456 8.93434 10.0545 9.04181 10.3262 9.04327Z"
        fill="black"/>
  <path fill-rule="evenodd" clip-rule="evenodd"
        d="M5.38649 8.09438C5.46299 8.09475 5.53788 8.07273 5.60166 8.03112C5.66545 7.98951 5.71527 7.93018 5.7448 7.86066C5.77433 7.79113 5.78225 7.71453 5.76755 7.64056C5.75286 7.56659 5.7162 7.49859 5.66224 7.44516C5.60828 7.39174 5.53943 7.3553 5.46442 7.34046C5.38942 7.32562 5.31163 7.33305 5.24092 7.36181C5.1702 7.39057 5.10975 7.43936 5.0672 7.502C5.02466 7.56465 5.00195 7.63832 5.00195 7.71369C5.00195 7.81434 5.04241 7.91089 5.11447 7.98223C5.18653 8.05357 5.28433 8.0939 5.38649 8.09438ZM10.0102 8.09438C10.0867 8.09475 10.1616 8.07273 10.2254 8.03112C10.2892 7.98951 10.339 7.93018 10.3685 7.86066C10.3981 7.79113 10.406 7.71453 10.3913 7.64056C10.3766 7.56659 10.3399 7.49859 10.286 7.44516C10.232 7.39174 10.1632 7.3553 10.0882 7.34046C10.0132 7.32562 9.93537 7.33305 9.86465 7.36181C9.79394 7.39057 9.73348 7.43936 9.69094 7.502C9.6484 7.56465 9.62569 7.63832 9.62569 7.71369C9.62568 7.81371 9.66562 7.90971 9.73687 7.98095C9.80813 8.05219 9.90498 8.09293 10.0065 8.09438H10.0102Z"
        fill="white"/>
</svg>
