<?xml version="1.0" encoding="UTF-8"?>
<svg xmlns="http://www.w3.org/2000/svg" xmlns:xlink="http://www.w3.org/1999/xlink" width="16px" height="16px" viewBox="0 0 16 16" version="1.1">
<g id="surface1">
<path style=" stroke:none;fill-rule:evenodd;fill:rgb(0%,0%,0%);fill-opacity:1;" d="M 1.394531 11.027344 C 0.964844 10.101562 0.726562 9.070312 0.726562 7.980469 C 0.726562 7.699219 0.742188 7.421875 0.773438 7.148438 C 0.804688 6.875 0.851562 6.601562 0.914062 6.339844 C 1.257812 4.851562 2.058594 3.542969 3.160156 2.5625 C 4.085938 1.738281 5.21875 1.152344 6.460938 0.886719 C 6.953125 0.78125 7.460938 0.726562 7.980469 0.726562 C 8.164062 0.726562 8.347656 0.734375 8.535156 0.746094 C 9.414062 0.8125 10.242188 1.035156 11 1.382812 C 11.609375 1.660156 12.175781 2.023438 12.679688 2.453125 C 13.949219 3.535156 14.835938 5.042969 15.132812 6.734375 C 15.203125 7.140625 15.238281 7.554688 15.238281 7.980469 C 15.238281 8.164062 15.230469 8.347656 15.214844 8.535156 C 15.164062 9.234375 15.011719 9.90625 14.777344 10.53125 C 14.449219 11.40625 13.957031 12.199219 13.335938 12.875 C 12.535156 13.695312 11.511719 14.0625 10.660156 14.046875 C 10.039062 14.035156 9.429688 13.789062 9.011719 13.425781 C 8.410156 12.910156 8.167969 12.320312 8.085938 11.664062 C 8.066406 11.5 8.078125 11.054688 8.164062 10.746094 C 8.226562 10.515625 8.386719 10.070312 8.625 9.875 C 8.347656 9.757812 7.992188 9.5 7.882812 9.375 C 7.855469 9.34375 7.859375 9.296875 7.882812 9.261719 C 7.90625 9.230469 7.949219 9.21875 7.988281 9.230469 C 8.226562 9.3125 8.515625 9.394531 8.816406 9.445312 C 9.21875 9.511719 9.714844 9.59375 10.21875 9.621094 C 11.449219 9.679688 12.730469 9.128906 13.128906 8.03125 C 13.527344 6.933594 13.371094 5.847656 11.945312 5.199219 C 10.515625 4.546875 9.855469 3.773438 8.699219 3.308594 C 7.945312 3 7.109375 3.183594 6.246094 3.660156 C 3.925781 4.941406 1.847656 8.992188 2.804688 12.75 C 2.816406 12.800781 2.796875 12.855469 2.75 12.878906 C 2.703125 12.902344 2.652344 12.894531 2.613281 12.863281 C 2.335938 12.554688 2.082031 12.226562 1.859375 11.875 C 1.6875 11.605469 1.53125 11.320312 1.394531 11.027344 Z M 1.394531 11.027344 "/>
<path style=" stroke:none;fill-rule:evenodd;fill:rgb(100%,100%,100%);fill-opacity:1;" d="M 8.351562 0.0078125 C 12.753906 0.214844 16.160156 3.953125 15.957031 8.351562 C 15.75 12.753906 12.011719 16.160156 7.609375 15.957031 C 3.210938 15.75 -0.195312 12.011719 0.0078125 7.609375 C 0.214844 3.210938 3.953125 -0.195312 8.351562 0.0078125 Z M 10.21875 9.621094 C 9.714844 9.59375 9.21875 9.511719 8.816406 9.445312 C 8.515625 9.394531 8.226562 9.3125 7.988281 9.230469 C 7.949219 9.21875 7.90625 9.230469 7.882812 9.261719 C 7.859375 9.296875 7.855469 9.34375 7.882812 9.375 C 7.992188 9.5 8.347656 9.757812 8.625 9.875 C 8.386719 10.070312 8.226562 10.515625 8.164062 10.746094 C 8.078125 11.054688 8.066406 11.5 8.085938 11.664062 C 8.167969 12.320312 8.410156 12.910156 9.011719 13.425781 C 9.429688 13.789062 10.039062 14.035156 10.660156 14.046875 C 11.515625 14.0625 12.539062 13.695312 13.347656 12.867188 C 14.398438 11.710938 15.089844 10.210938 15.214844 8.535156 C 15.523438 4.542969 12.527344 1.050781 8.535156 0.746094 C 4.539062 0.441406 1.050781 3.4375 0.746094 7.429688 C 0.589844 9.496094 1.316406 11.429688 2.609375 12.855469 C 2.644531 12.894531 2.703125 12.90625 2.75 12.878906 C 2.796875 12.855469 2.816406 12.800781 2.804688 12.75 C 1.847656 8.992188 3.925781 4.941406 6.246094 3.660156 C 7.109375 3.183594 7.945312 3.003906 8.699219 3.308594 C 9.855469 3.773438 10.515625 4.546875 11.945312 5.199219 C 13.371094 5.847656 13.527344 6.933594 13.128906 8.03125 C 12.730469 9.128906 11.449219 9.679688 10.21875 9.621094 Z M 7.71875 3.8125 C 7.25 3.847656 6.945312 4.429688 6.902344 4.800781 C 6.863281 5.175781 7.046875 5.789062 7.65625 5.777344 C 8.371094 5.765625 8.589844 5.152344 8.511719 4.558594 C 8.453125 4.117188 8.109375 3.78125 7.71875 3.8125 Z M 7.71875 3.8125 "/>
<path style=" stroke:none;fill-rule:evenodd;fill:rgb(0%,0%,0%);fill-opacity:1;" d="M 7.722656 3.808594 C 8.113281 3.78125 8.457031 4.113281 8.515625 4.558594 C 8.59375 5.148438 8.375 5.761719 7.660156 5.777344 C 7.050781 5.789062 6.867188 5.171875 6.90625 4.800781 C 6.945312 4.425781 7.253906 3.847656 7.722656 3.808594 Z M 7.722656 3.808594 "/>
</g>
</svg>
