<?xml version="1.0" encoding="UTF-8"?>
<svg xmlns="http://www.w3.org/2000/svg" xmlns:xlink="http://www.w3.org/1999/xlink" width="16px" height="16px" viewBox="0 0 16 16" version="1.1">
<g id="surface1">
<path style=" stroke:none;fill-rule:nonzero;fill:rgb(0%,0%,0%);fill-opacity:1;" d="M 7.460938 0.015625 C 5 0.179688 2.730469 1.492188 1.351562 3.554688 C 0.648438 4.605469 0.21875 5.761719 0.0625 7.007812 C -0.3125 10.015625 1.035156 12.964844 3.554688 14.648438 C 5.164062 15.722656 7.070312 16.175781 8.992188 15.9375 C 11.792969 15.589844 14.21875 13.773438 15.339844 11.179688 C 16.21875 9.152344 16.21875 6.847656 15.339844 4.820312 C 14.539062 2.964844 13.035156 1.460938 11.179688 0.660156 C 10.015625 0.15625 8.734375 -0.0664062 7.460938 0.015625 Z M 8.453125 1.632812 C 9.324219 1.828125 9.917969 2.433594 10.113281 3.328125 C 10.140625 3.46875 10.148438 3.535156 10.148438 3.828125 C 10.148438 4.113281 10.140625 4.1875 10.113281 4.320312 C 9.921875 5.210938 9.335938 5.8125 8.484375 6.003906 C 8.34375 6.035156 8.277344 6.039062 8 6.039062 C 7.722656 6.039062 7.65625 6.035156 7.515625 6.003906 C 6.664062 5.8125 6.078125 5.210938 5.886719 4.320312 C 5.859375 4.1875 5.851562 4.113281 5.851562 3.828125 C 5.851562 3.535156 5.859375 3.46875 5.886719 3.328125 C 6.027344 2.679688 6.375 2.183594 6.910156 1.875 C 7.109375 1.753906 7.371094 1.664062 7.632812 1.617188 C 7.804688 1.585938 8.289062 1.597656 8.453125 1.632812 Z M 8.453125 10.007812 C 9.109375 10.152344 9.632812 10.554688 9.914062 11.132812 C 10.015625 11.335938 10.0625 11.476562 10.109375 11.703125 C 10.140625 11.84375 10.148438 11.914062 10.148438 12.203125 C 10.148438 12.492188 10.140625 12.5625 10.113281 12.695312 C 9.960938 13.402344 9.574219 13.914062 8.976562 14.203125 C 8.65625 14.359375 8.378906 14.421875 8 14.421875 C 7.621094 14.421875 7.34375 14.359375 7.023438 14.203125 C 6.425781 13.914062 6.039062 13.402344 5.886719 12.695312 C 5.859375 12.5625 5.851562 12.492188 5.851562 12.203125 C 5.851562 11.914062 5.859375 11.84375 5.890625 11.703125 C 5.9375 11.476562 5.984375 11.335938 6.085938 11.132812 C 6.382812 10.523438 6.949219 10.109375 7.648438 9.992188 C 7.816406 9.960938 8.292969 9.972656 8.453125 10.007812 Z M 8.453125 10.007812 "/>
</g>
</svg>
